<svg xmlns="http://www.w3.org/2000/svg" viewBox="0 0 120 80" fill="none">
  <defs>
    <linearGradient id="budGrad" x1="0%" y1="0%" x2="100%" y2="100%">
      <stop offset="0%" stop-color="#333"/>
      <stop offset="100%" stop-color="#111"/>
    </linearGradient>
  </defs>
  <g transform="translate(8, 12)">
    <path d="M8 8 Q4 20 6 38 L10 48 Q12 52 18 50 L22 38 Q24 22 20 8 Q16 2 8 8 Z" fill="url(#budGrad)" stroke="#444" stroke-width="1"/>
    <ellipse cx="14" cy="48" rx="8" ry="10" fill="#1a1a1a" stroke="#333"/>
    <rect x="10" y="20" width="8" height="22" rx="4" fill="#222"/>
  </g>
  <g transform="translate(52, 12) scale(-1, 1) translate(-40, 0)">
    <path d="M8 8 Q4 20 6 38 L10 48 Q12 52 18 50 L22 38 Q24 22 20 8 Q16 2 8 8 Z" fill="url(#budGrad)" stroke="#444" stroke-width="1"/>
    <ellipse cx="14" cy="48" rx="8" ry="10" fill="#1a1a1a" stroke="#333"/>
    <rect x="10" y="20" width="8" height="22" rx="4" fill="#222"/>
  </g>
</svg>
