<svg xmlns="http://www.w3.org/2000/svg" viewBox="0 0 120 140" fill="none">
  <defs>
    <linearGradient id="shirtGrad" x1="0%" y1="0%" x2="0%" y2="100%">
      <stop offset="0%" stop-color="#2a2a2a"/>
      <stop offset="100%" stop-color="#111"/>
    </linearGradient>
    <radialGradient id="sensorGlow" cx="50%" cy="50%" r="50%">
      <stop offset="0%" stop-color="#ff3333"/>
      <stop offset="70%" stop-color="#cc0000"/>
      <stop offset="100%" stop-color="#660000"/>
    </radialGradient>
  </defs>
  <path d="M35 28 L25 42 L20 55 L22 130 L98 130 L100 55 L95 42 L85 28 L70 22 L50 22 Z" fill="url(#shirtGrad)" stroke="#333" stroke-width="1"/>
  <path d="M35 28 L50 38 L70 38 L85 28" fill="#1a1a1a"/>
  <ellipse cx="42" cy="52" rx="7" ry="7" fill="url(#sensorGlow)" stroke="#cc0000" stroke-width="1.5"/>
  <ellipse cx="78" cy="52" rx="7" ry="7" fill="url(#sensorGlow)" stroke="#cc0000" stroke-width="1.5"/>
  <ellipse cx="60" cy="72" rx="7" ry="7" fill="url(#sensorGlow)" stroke="#cc0000" stroke-width="1.5"/>
  <ellipse cx="48" cy="95" rx="6" ry="6" fill="url(#sensorGlow)" stroke="#cc0000" stroke-width="1.5"/>
  <ellipse cx="72" cy="95" rx="6" ry="6" fill="url(#sensorGlow)" stroke="#cc0000" stroke-width="1.5"/>
  <ellipse cx="60" cy="115" rx="6" ry="6" fill="url(#sensorGlow)" stroke="#cc0000" stroke-width="1.5"/>
  <circle cx="42" cy="52" r="2" fill="#111"/>
  <circle cx="78" cy="52" r="2" fill="#111"/>
  <circle cx="60" cy="72" r="2" fill="#111"/>
</svg>
